<mxfile host="app.diagrams.net" modified="2021-01-26T07:22:11.617Z" agent="5.0 (Windows NT 10.0; Win64; x64) AppleWebKit/537.36 (KHTML, like Gecko) Chrome/87.0.4280.141 Safari/537.36" etag="kfwTcmxp0nMyIAx6PB_3" version="14.2.7" type="github">
  <diagram id="R2lEEEUBdFMjLlhIrx00" name="Page-1">
    <mxGraphModel dx="981" dy="623" grid="1" gridSize="10" guides="1" tooltips="1" connect="1" arrows="1" fold="1" page="1" pageScale="1" pageWidth="827" pageHeight="1169" math="0" shadow="0" extFonts="Permanent Marker^https://fonts.googleapis.com/css?family=Permanent+Marker">
      <root>
        <mxCell id="0" />
        <mxCell id="1" parent="0" />
        <mxCell id="rQlDtDrj5K_MvWdmBDgF-53" value="1" style="whiteSpace=wrap;html=1;rounded=1;arcSize=28;align=center;verticalAlign=middle;strokeWidth=1;autosize=1;spacing=4;treeFolding=1;treeMoving=1;newEdgeStyle={&quot;edgeStyle&quot;:&quot;entityRelationEdgeStyle&quot;,&quot;startArrow&quot;:&quot;none&quot;,&quot;endArrow&quot;:&quot;none&quot;,&quot;segment&quot;:10,&quot;curved&quot;:1};fillColor=#fff2cc;direction=east;strokeColor=#d6b656;" parent="1" vertex="1">
          <mxGeometry x="112" y="260" width="31" height="18" as="geometry" />
        </mxCell>
        <mxCell id="rQlDtDrj5K_MvWdmBDgF-54" value="" style="startArrow=none;endArrow=none;segment=10;entryX=1;entryY=0.5;entryDx=0;entryDy=0;dashed=1;strokeWidth=1;fillColor=#fff2cc;strokeColor=#d6b656;exitX=0;exitY=0.5;exitDx=0;exitDy=0;" parent="1" source="rQlDtDrj5K_MvWdmBDgF-4" target="rQlDtDrj5K_MvWdmBDgF-53" edge="1">
          <mxGeometry relative="1" as="geometry">
            <mxPoint x="183" y="306" as="sourcePoint" />
            <mxPoint x="163" y="269" as="targetPoint" />
            <Array as="points" />
          </mxGeometry>
        </mxCell>
        <mxCell id="rQlDtDrj5K_MvWdmBDgF-48" style="edgeStyle=orthogonalEdgeStyle;orthogonalLoop=1;jettySize=auto;html=1;exitX=0;exitY=0.5;exitDx=0;exitDy=0;entryX=1;entryY=0.5;entryDx=0;entryDy=0;endArrow=classicThin;endFill=1;jumpStyle=none;noJump=0;fillColor=#a20025;" parent="1" source="rQlDtDrj5K_MvWdmBDgF-47" target="rQlDtDrj5K_MvWdmBDgF-9" edge="1">
          <mxGeometry relative="1" as="geometry" />
        </mxCell>
        <mxCell id="rQlDtDrj5K_MvWdmBDgF-3" value="" style="group" parent="1" vertex="1" connectable="0">
          <mxGeometry x="273" y="144" width="90" height="30" as="geometry" />
        </mxCell>
        <mxCell id="rQlDtDrj5K_MvWdmBDgF-1" value="C端" style="rounded=1;whiteSpace=wrap;html=1;" parent="rQlDtDrj5K_MvWdmBDgF-3" vertex="1">
          <mxGeometry width="90.00000000000001" height="30" as="geometry" />
        </mxCell>
        <mxCell id="rQlDtDrj5K_MvWdmBDgF-2" value="sdk" style="rounded=1;whiteSpace=wrap;html=1;" parent="rQlDtDrj5K_MvWdmBDgF-3" vertex="1">
          <mxGeometry x="57.27" y="20" width="32.73" height="10" as="geometry" />
        </mxCell>
        <mxCell id="rQlDtDrj5K_MvWdmBDgF-10" style="edgeStyle=orthogonalEdgeStyle;orthogonalLoop=1;jettySize=auto;html=1;exitX=0.5;exitY=1;exitDx=0;exitDy=0;entryX=0.442;entryY=0.017;entryDx=0;entryDy=0;entryPerimeter=0;" parent="1" source="rQlDtDrj5K_MvWdmBDgF-4" target="rQlDtDrj5K_MvWdmBDgF-9" edge="1">
          <mxGeometry relative="1" as="geometry">
            <Array as="points">
              <mxPoint x="223" y="320" />
              <mxPoint x="312" y="320" />
            </Array>
          </mxGeometry>
        </mxCell>
        <mxCell id="rQlDtDrj5K_MvWdmBDgF-4" value="钱包网关" style="rounded=1;whiteSpace=wrap;html=1;" parent="1" vertex="1">
          <mxGeometry x="173" y="254" width="100" height="30" as="geometry" />
        </mxCell>
        <mxCell id="rQlDtDrj5K_MvWdmBDgF-11" style="edgeStyle=orthogonalEdgeStyle;orthogonalLoop=1;jettySize=auto;html=1;exitX=0.5;exitY=1;exitDx=0;exitDy=0;entryX=0.608;entryY=0.003;entryDx=0;entryDy=0;entryPerimeter=0;" parent="1" source="rQlDtDrj5K_MvWdmBDgF-5" target="rQlDtDrj5K_MvWdmBDgF-9" edge="1">
          <mxGeometry relative="1" as="geometry">
            <Array as="points">
              <mxPoint x="403" y="320" />
              <mxPoint x="329" y="320" />
            </Array>
          </mxGeometry>
        </mxCell>
        <mxCell id="rQlDtDrj5K_MvWdmBDgF-5" value="人脸网关" style="rounded=1;whiteSpace=wrap;html=1;" parent="1" vertex="1">
          <mxGeometry x="353" y="254" width="100" height="30" as="geometry" />
        </mxCell>
        <mxCell id="rQlDtDrj5K_MvWdmBDgF-6" style="orthogonalLoop=1;jettySize=auto;html=1;entryX=0.5;entryY=0;entryDx=0;entryDy=0;edgeStyle=orthogonalEdgeStyle;" parent="1" target="rQlDtDrj5K_MvWdmBDgF-4" edge="1">
          <mxGeometry relative="1" as="geometry">
            <mxPoint x="303" y="174" as="sourcePoint" />
            <Array as="points">
              <mxPoint x="303" y="174" />
              <mxPoint x="303" y="224" />
              <mxPoint x="223" y="224" />
            </Array>
          </mxGeometry>
        </mxCell>
        <mxCell id="rQlDtDrj5K_MvWdmBDgF-19" style="edgeStyle=orthogonalEdgeStyle;orthogonalLoop=1;jettySize=auto;html=1;exitX=0.5;exitY=1;exitDx=0;exitDy=0;entryX=0.524;entryY=0.133;entryDx=0;entryDy=0;entryPerimeter=0;" parent="1" source="rQlDtDrj5K_MvWdmBDgF-9" target="rQlDtDrj5K_MvWdmBDgF-18" edge="1">
          <mxGeometry relative="1" as="geometry" />
        </mxCell>
        <mxCell id="rQlDtDrj5K_MvWdmBDgF-40" style="edgeStyle=elbowEdgeStyle;orthogonalLoop=1;jettySize=auto;elbow=vertical;html=1;exitX=0.75;exitY=1;exitDx=0;exitDy=0;entryX=0.5;entryY=0;entryDx=0;entryDy=0;" parent="1" source="rQlDtDrj5K_MvWdmBDgF-9" target="rQlDtDrj5K_MvWdmBDgF-39" edge="1">
          <mxGeometry relative="1" as="geometry">
            <Array as="points">
              <mxPoint x="413" y="414" />
            </Array>
          </mxGeometry>
        </mxCell>
        <mxCell id="rQlDtDrj5K_MvWdmBDgF-43" style="edgeStyle=orthogonalEdgeStyle;orthogonalLoop=1;jettySize=auto;html=1;exitX=0.25;exitY=1;exitDx=0;exitDy=0;entryX=0.5;entryY=0;entryDx=0;entryDy=0;entryPerimeter=0;" parent="1" source="rQlDtDrj5K_MvWdmBDgF-9" target="rQlDtDrj5K_MvWdmBDgF-42" edge="1">
          <mxGeometry relative="1" as="geometry">
            <Array as="points">
              <mxPoint x="293" y="454" />
              <mxPoint x="213" y="454" />
            </Array>
          </mxGeometry>
        </mxCell>
        <mxCell id="rQlDtDrj5K_MvWdmBDgF-49" style="jumpStyle=none;orthogonalLoop=1;jettySize=auto;html=1;exitX=1;exitY=0.5;exitDx=0;exitDy=0;entryX=0;entryY=0.5;entryDx=0;entryDy=0;endArrow=classicThin;endFill=1;strokeColor=#000000;" parent="1" source="rQlDtDrj5K_MvWdmBDgF-9" target="rQlDtDrj5K_MvWdmBDgF-47" edge="1">
          <mxGeometry relative="1" as="geometry" />
        </mxCell>
        <mxCell id="rQlDtDrj5K_MvWdmBDgF-9" value="人脸后台" style="rounded=1;whiteSpace=wrap;html=1;" parent="1" vertex="1">
          <mxGeometry x="268" y="345" width="100" height="30" as="geometry" />
        </mxCell>
        <mxCell id="rQlDtDrj5K_MvWdmBDgF-12" value="公安人脸三要素" style="rounded=1;whiteSpace=wrap;html=1;" parent="1" vertex="1">
          <mxGeometry x="348" y="439" width="95" height="30" as="geometry" />
        </mxCell>
        <mxCell id="rQlDtDrj5K_MvWdmBDgF-13" value="图像组活体" style="rounded=1;whiteSpace=wrap;html=1;" parent="1" vertex="1">
          <mxGeometry x="453" y="439" width="100" height="30" as="geometry" />
        </mxCell>
        <mxCell id="rQlDtDrj5K_MvWdmBDgF-18" value="安全存储&lt;br&gt;SFS" style="ellipse;shape=cloud;whiteSpace=wrap;html=1;" parent="1" vertex="1">
          <mxGeometry x="273" y="512.5" width="87" height="54" as="geometry" />
        </mxCell>
        <mxCell id="rQlDtDrj5K_MvWdmBDgF-26" style="edgeStyle=elbowEdgeStyle;orthogonalLoop=1;jettySize=auto;html=1;exitX=0.576;exitY=1.033;exitDx=0;exitDy=0;dashed=1;elbow=vertical;exitPerimeter=0;entryX=0.5;entryY=0;entryDx=0;entryDy=0;" parent="1" source="rQlDtDrj5K_MvWdmBDgF-1" target="rQlDtDrj5K_MvWdmBDgF-5" edge="1">
          <mxGeometry relative="1" as="geometry">
            <mxPoint x="338" y="174" as="sourcePoint" />
            <mxPoint x="403" y="264" as="targetPoint" />
            <Array as="points">
              <mxPoint x="363" y="224" />
              <mxPoint x="363" y="214" />
            </Array>
          </mxGeometry>
        </mxCell>
        <mxCell id="rQlDtDrj5K_MvWdmBDgF-28" value="" style="endArrow=none;dashed=1;html=1;dashPattern=1 3;strokeWidth=2;" parent="1" edge="1">
          <mxGeometry width="50" height="50" relative="1" as="geometry">
            <mxPoint x="93" y="204" as="sourcePoint" />
            <mxPoint x="603" y="204" as="targetPoint" />
          </mxGeometry>
        </mxCell>
        <mxCell id="rQlDtDrj5K_MvWdmBDgF-29" value="" style="endArrow=none;dashed=1;html=1;dashPattern=1 3;strokeWidth=2;" parent="1" edge="1">
          <mxGeometry width="50" height="50" relative="1" as="geometry">
            <mxPoint x="93" y="304" as="sourcePoint" />
            <mxPoint x="600" y="304" as="targetPoint" />
          </mxGeometry>
        </mxCell>
        <mxCell id="rQlDtDrj5K_MvWdmBDgF-30" value="" style="endArrow=none;dashed=1;html=1;dashPattern=1 3;strokeWidth=2;" parent="1" edge="1">
          <mxGeometry width="50" height="50" relative="1" as="geometry">
            <mxPoint x="93" y="404" as="sourcePoint" />
            <mxPoint x="600" y="404" as="targetPoint" />
          </mxGeometry>
        </mxCell>
        <mxCell id="rQlDtDrj5K_MvWdmBDgF-31" value="" style="endArrow=none;dashed=1;html=1;dashPattern=1 3;strokeWidth=2;" parent="1" edge="1">
          <mxGeometry width="50" height="50" relative="1" as="geometry">
            <mxPoint x="93" y="494" as="sourcePoint" />
            <mxPoint x="603" y="494" as="targetPoint" />
          </mxGeometry>
        </mxCell>
        <mxCell id="rQlDtDrj5K_MvWdmBDgF-32" value="" style="endArrow=none;dashed=1;html=1;dashPattern=1 3;strokeWidth=2;" parent="1" edge="1">
          <mxGeometry width="50" height="50" relative="1" as="geometry">
            <mxPoint x="93" y="584" as="sourcePoint" />
            <mxPoint x="603" y="584" as="targetPoint" />
          </mxGeometry>
        </mxCell>
        <mxCell id="rQlDtDrj5K_MvWdmBDgF-33" value="网关层" style="text;html=1;strokeColor=none;fillColor=none;align=center;verticalAlign=middle;whiteSpace=wrap;rounded=0;" parent="1" vertex="1">
          <mxGeometry x="93" y="214" width="40" height="20" as="geometry" />
        </mxCell>
        <mxCell id="rQlDtDrj5K_MvWdmBDgF-34" value="服务层" style="text;html=1;strokeColor=none;fillColor=none;align=center;verticalAlign=middle;whiteSpace=wrap;rounded=0;" parent="1" vertex="1">
          <mxGeometry x="88" y="320" width="52" height="20" as="geometry" />
        </mxCell>
        <mxCell id="rQlDtDrj5K_MvWdmBDgF-35" value="算法层" style="text;html=1;strokeColor=none;fillColor=none;align=center;verticalAlign=middle;whiteSpace=wrap;rounded=0;" parent="1" vertex="1">
          <mxGeometry x="80" y="417" width="68" height="15" as="geometry" />
        </mxCell>
        <mxCell id="rQlDtDrj5K_MvWdmBDgF-38" value="存储层" style="text;html=1;strokeColor=none;fillColor=none;align=center;verticalAlign=middle;whiteSpace=wrap;rounded=0;" parent="1" vertex="1">
          <mxGeometry x="88" y="506" width="50" height="15" as="geometry" />
        </mxCell>
        <mxCell id="rQlDtDrj5K_MvWdmBDgF-41" style="edgeStyle=orthogonalEdgeStyle;orthogonalLoop=1;jettySize=auto;elbow=vertical;html=1;exitX=0.5;exitY=1;exitDx=0;exitDy=0;entryX=0.875;entryY=0.5;entryDx=0;entryDy=0;entryPerimeter=0;" parent="1" source="rQlDtDrj5K_MvWdmBDgF-39" target="rQlDtDrj5K_MvWdmBDgF-18" edge="1">
          <mxGeometry relative="1" as="geometry">
            <Array as="points">
              <mxPoint x="451" y="539" />
            </Array>
          </mxGeometry>
        </mxCell>
        <mxCell id="rQlDtDrj5K_MvWdmBDgF-39" value="" style="rounded=1;whiteSpace=wrap;html=1;fillColor=none;dashed=1;strokeWidth=1;" parent="1" vertex="1">
          <mxGeometry x="339" y="429" width="224" height="50" as="geometry" />
        </mxCell>
        <mxCell id="rQlDtDrj5K_MvWdmBDgF-42" value="识别记录" style="shape=cylinder3;whiteSpace=wrap;html=1;boundedLbl=1;backgroundOutline=1;size=15;strokeWidth=1;fillColor=#FFFFFF;" parent="1" vertex="1">
          <mxGeometry x="183" y="511.5" width="60" height="55" as="geometry" />
        </mxCell>
        <mxCell id="rQlDtDrj5K_MvWdmBDgF-44" value="终端平台" style="text;html=1;strokeColor=none;fillColor=none;align=center;verticalAlign=middle;whiteSpace=wrap;rounded=0;" parent="1" vertex="1">
          <mxGeometry x="88" y="134" width="69" height="15" as="geometry" />
        </mxCell>
        <mxCell id="rQlDtDrj5K_MvWdmBDgF-45" value="" style="endArrow=none;dashed=1;html=1;dashPattern=1 3;strokeWidth=2;" parent="1" edge="1">
          <mxGeometry width="50" height="50" relative="1" as="geometry">
            <mxPoint x="600" y="90" as="sourcePoint" />
            <mxPoint x="600" y="620" as="targetPoint" />
          </mxGeometry>
        </mxCell>
        <mxCell id="rQlDtDrj5K_MvWdmBDgF-47" value="业务方服务" style="rounded=1;whiteSpace=wrap;html=1;" parent="1" vertex="1">
          <mxGeometry x="630" y="345" width="100" height="30" as="geometry" />
        </mxCell>
        <mxCell id="E6IEP6yQW0__LG3QoJLu-3" value="2" style="whiteSpace=wrap;html=1;rounded=1;arcSize=26;align=center;verticalAlign=middle;strokeWidth=1;autosize=1;spacing=4;treeFolding=1;treeMoving=1;newEdgeStyle={&quot;edgeStyle&quot;:&quot;entityRelationEdgeStyle&quot;,&quot;startArrow&quot;:&quot;none&quot;,&quot;endArrow&quot;:&quot;none&quot;,&quot;segment&quot;:10,&quot;curved&quot;:1};fillColor=#fff2cc;direction=east;strokeColor=#d6b656;" parent="1" vertex="1" collapsed="1">
          <mxGeometry x="304" y="594" width="35" height="19" as="geometry" />
        </mxCell>
        <mxCell id="E6IEP6yQW0__LG3QoJLu-4" value="" style="startArrow=none;endArrow=none;segment=10;entryX=0.5;entryY=0;entryDx=0;entryDy=0;dashed=1;strokeWidth=1;fillColor=#fff2cc;strokeColor=#d6b656;exitX=0.55;exitY=0.95;exitDx=0;exitDy=0;exitPerimeter=0;" parent="1" source="rQlDtDrj5K_MvWdmBDgF-18" target="E6IEP6yQW0__LG3QoJLu-3" edge="1">
          <mxGeometry relative="1" as="geometry">
            <mxPoint x="318" y="571" as="sourcePoint" />
            <mxPoint x="338" y="628" as="targetPoint" />
            <Array as="points" />
          </mxGeometry>
        </mxCell>
        <mxCell id="E6IEP6yQW0__LG3QoJLu-5" value="3" style="whiteSpace=wrap;html=1;rounded=1;arcSize=26;align=center;verticalAlign=middle;strokeWidth=1;autosize=1;spacing=4;treeFolding=1;treeMoving=1;newEdgeStyle={&quot;edgeStyle&quot;:&quot;entityRelationEdgeStyle&quot;,&quot;startArrow&quot;:&quot;none&quot;,&quot;endArrow&quot;:&quot;none&quot;,&quot;segment&quot;:10,&quot;curved&quot;:1};fillColor=#fff2cc;direction=east;strokeColor=#d6b656;" parent="1" vertex="1" collapsed="1">
          <mxGeometry x="195.5" y="594" width="35" height="19" as="geometry" />
        </mxCell>
        <mxCell id="E6IEP6yQW0__LG3QoJLu-6" value="" style="startArrow=none;endArrow=none;segment=10;entryX=0.5;entryY=0;entryDx=0;entryDy=0;dashed=1;strokeWidth=1;fillColor=#fff2cc;strokeColor=#d6b656;exitX=0.5;exitY=1;exitDx=0;exitDy=0;exitPerimeter=0;" parent="1" source="rQlDtDrj5K_MvWdmBDgF-42" target="E6IEP6yQW0__LG3QoJLu-5" edge="1">
          <mxGeometry relative="1" as="geometry">
            <mxPoint x="140" y="607" as="sourcePoint" />
            <mxPoint x="233" y="628" as="targetPoint" />
            <Array as="points" />
          </mxGeometry>
        </mxCell>
        <mxCell id="E6IEP6yQW0__LG3QoJLu-9" value="4、5" style="whiteSpace=wrap;html=1;rounded=1;arcSize=26;align=center;verticalAlign=middle;strokeWidth=1;autosize=1;spacing=4;treeFolding=1;treeMoving=1;newEdgeStyle={&quot;edgeStyle&quot;:&quot;entityRelationEdgeStyle&quot;,&quot;startArrow&quot;:&quot;none&quot;,&quot;endArrow&quot;:&quot;none&quot;,&quot;segment&quot;:10,&quot;curved&quot;:1};fillColor=#fff2cc;direction=east;strokeColor=#d6b656;" parent="1" vertex="1" collapsed="1">
          <mxGeometry x="610" y="444.25" width="50" height="19.5" as="geometry" />
        </mxCell>
        <mxCell id="E6IEP6yQW0__LG3QoJLu-10" value="" style="startArrow=none;endArrow=none;segment=10;entryX=0;entryY=0.5;entryDx=0;entryDy=0;dashed=1;strokeWidth=1;fillColor=#fff2cc;strokeColor=#d6b656;exitX=1;exitY=0.5;exitDx=0;exitDy=0;" parent="1" source="rQlDtDrj5K_MvWdmBDgF-39" target="E6IEP6yQW0__LG3QoJLu-9" edge="1">
          <mxGeometry relative="1" as="geometry">
            <mxPoint x="563.0000000000002" y="461" as="sourcePoint" />
            <mxPoint x="688" y="466" as="targetPoint" />
            <Array as="points" />
          </mxGeometry>
        </mxCell>
      </root>
    </mxGraphModel>
  </diagram>
</mxfile>
